<mxfile host="app.diagrams.net" modified="2023-11-20T18:14:02.923Z" agent="Mozilla/5.0 (Windows NT 10.0; Win64; x64) AppleWebKit/537.36 (KHTML, like Gecko) Chrome/119.0.0.0 Safari/537.36" etag="LRYBNh_svKLZxNfsUn0A" version="22.1.3" type="github">
  <diagram name="หน้า-1" id="DijMzfGkPRQtRxV3uP6k">
    <mxGraphModel dx="1395" dy="622" grid="1" gridSize="10" guides="1" tooltips="1" connect="1" arrows="1" fold="1" page="1" pageScale="1" pageWidth="827" pageHeight="1169" math="0" shadow="0">
      <root>
        <mxCell id="0" />
        <mxCell id="1" parent="0" />
        <mxCell id="NA0-FD2zaBCLr44A0kzo-3" style="edgeStyle=orthogonalEdgeStyle;rounded=0;orthogonalLoop=1;jettySize=auto;html=1;entryX=0;entryY=0.5;entryDx=0;entryDy=0;" edge="1" parent="1" source="NA0-FD2zaBCLr44A0kzo-1" target="NA0-FD2zaBCLr44A0kzo-2">
          <mxGeometry relative="1" as="geometry" />
        </mxCell>
        <mxCell id="NA0-FD2zaBCLr44A0kzo-6" style="edgeStyle=orthogonalEdgeStyle;rounded=0;orthogonalLoop=1;jettySize=auto;html=1;entryX=0;entryY=0.5;entryDx=0;entryDy=0;" edge="1" parent="1" source="NA0-FD2zaBCLr44A0kzo-1" target="NA0-FD2zaBCLr44A0kzo-4">
          <mxGeometry relative="1" as="geometry" />
        </mxCell>
        <mxCell id="NA0-FD2zaBCLr44A0kzo-7" style="edgeStyle=orthogonalEdgeStyle;rounded=0;orthogonalLoop=1;jettySize=auto;html=1;entryX=0;entryY=0.5;entryDx=0;entryDy=0;" edge="1" parent="1" source="NA0-FD2zaBCLr44A0kzo-1" target="NA0-FD2zaBCLr44A0kzo-5">
          <mxGeometry relative="1" as="geometry" />
        </mxCell>
        <mxCell id="NA0-FD2zaBCLr44A0kzo-1" value="Firestore" style="rounded=0;whiteSpace=wrap;html=1;" vertex="1" parent="1">
          <mxGeometry x="140" y="400" width="120" height="60" as="geometry" />
        </mxCell>
        <mxCell id="NA0-FD2zaBCLr44A0kzo-9" style="edgeStyle=orthogonalEdgeStyle;rounded=0;orthogonalLoop=1;jettySize=auto;html=1;entryX=0;entryY=0.5;entryDx=0;entryDy=0;" edge="1" parent="1" source="NA0-FD2zaBCLr44A0kzo-2" target="NA0-FD2zaBCLr44A0kzo-8">
          <mxGeometry relative="1" as="geometry" />
        </mxCell>
        <mxCell id="NA0-FD2zaBCLr44A0kzo-12" style="edgeStyle=orthogonalEdgeStyle;rounded=0;orthogonalLoop=1;jettySize=auto;html=1;entryX=0;entryY=0.5;entryDx=0;entryDy=0;" edge="1" parent="1" source="NA0-FD2zaBCLr44A0kzo-2" target="NA0-FD2zaBCLr44A0kzo-11">
          <mxGeometry relative="1" as="geometry" />
        </mxCell>
        <mxCell id="NA0-FD2zaBCLr44A0kzo-13" style="edgeStyle=orthogonalEdgeStyle;rounded=0;orthogonalLoop=1;jettySize=auto;html=1;entryX=0;entryY=0.5;entryDx=0;entryDy=0;" edge="1" parent="1" source="NA0-FD2zaBCLr44A0kzo-2" target="NA0-FD2zaBCLr44A0kzo-10">
          <mxGeometry relative="1" as="geometry" />
        </mxCell>
        <mxCell id="NA0-FD2zaBCLr44A0kzo-2" value="Class1" style="rounded=0;whiteSpace=wrap;html=1;" vertex="1" parent="1">
          <mxGeometry x="310" y="400" width="120" height="60" as="geometry" />
        </mxCell>
        <mxCell id="NA0-FD2zaBCLr44A0kzo-4" value="Class2" style="rounded=0;whiteSpace=wrap;html=1;" vertex="1" parent="1">
          <mxGeometry x="310" y="490" width="120" height="60" as="geometry" />
        </mxCell>
        <mxCell id="NA0-FD2zaBCLr44A0kzo-5" value="Class3" style="rounded=0;whiteSpace=wrap;html=1;" vertex="1" parent="1">
          <mxGeometry x="310" y="580" width="120" height="60" as="geometry" />
        </mxCell>
        <mxCell id="NA0-FD2zaBCLr44A0kzo-15" style="edgeStyle=orthogonalEdgeStyle;rounded=0;orthogonalLoop=1;jettySize=auto;html=1;entryX=0;entryY=0.5;entryDx=0;entryDy=0;" edge="1" parent="1" source="NA0-FD2zaBCLr44A0kzo-8" target="NA0-FD2zaBCLr44A0kzo-14">
          <mxGeometry relative="1" as="geometry" />
        </mxCell>
        <mxCell id="NA0-FD2zaBCLr44A0kzo-17" style="edgeStyle=orthogonalEdgeStyle;rounded=0;orthogonalLoop=1;jettySize=auto;html=1;entryX=0;entryY=0.5;entryDx=0;entryDy=0;" edge="1" parent="1" source="NA0-FD2zaBCLr44A0kzo-8" target="NA0-FD2zaBCLr44A0kzo-16">
          <mxGeometry relative="1" as="geometry" />
        </mxCell>
        <mxCell id="NA0-FD2zaBCLr44A0kzo-8" value="Assignments" style="rounded=0;whiteSpace=wrap;html=1;" vertex="1" parent="1">
          <mxGeometry x="480" y="200" width="120" height="60" as="geometry" />
        </mxCell>
        <mxCell id="NA0-FD2zaBCLr44A0kzo-26" style="edgeStyle=orthogonalEdgeStyle;rounded=0;orthogonalLoop=1;jettySize=auto;html=1;entryX=0;entryY=0.5;entryDx=0;entryDy=0;" edge="1" parent="1" source="NA0-FD2zaBCLr44A0kzo-10" target="NA0-FD2zaBCLr44A0kzo-24">
          <mxGeometry relative="1" as="geometry" />
        </mxCell>
        <mxCell id="NA0-FD2zaBCLr44A0kzo-10" value="Records" style="rounded=0;whiteSpace=wrap;html=1;" vertex="1" parent="1">
          <mxGeometry x="480" y="580" width="120" height="60" as="geometry" />
        </mxCell>
        <mxCell id="NA0-FD2zaBCLr44A0kzo-21" style="edgeStyle=orthogonalEdgeStyle;rounded=0;orthogonalLoop=1;jettySize=auto;html=1;entryX=0;entryY=0.5;entryDx=0;entryDy=0;" edge="1" parent="1" source="NA0-FD2zaBCLr44A0kzo-11" target="NA0-FD2zaBCLr44A0kzo-18">
          <mxGeometry relative="1" as="geometry" />
        </mxCell>
        <mxCell id="NA0-FD2zaBCLr44A0kzo-22" style="edgeStyle=orthogonalEdgeStyle;rounded=0;orthogonalLoop=1;jettySize=auto;html=1;entryX=0;entryY=0.5;entryDx=0;entryDy=0;" edge="1" parent="1" source="NA0-FD2zaBCLr44A0kzo-11" target="NA0-FD2zaBCLr44A0kzo-19">
          <mxGeometry relative="1" as="geometry" />
        </mxCell>
        <mxCell id="NA0-FD2zaBCLr44A0kzo-23" style="edgeStyle=orthogonalEdgeStyle;rounded=0;orthogonalLoop=1;jettySize=auto;html=1;entryX=0;entryY=0.5;entryDx=0;entryDy=0;" edge="1" parent="1" source="NA0-FD2zaBCLr44A0kzo-11" target="NA0-FD2zaBCLr44A0kzo-20">
          <mxGeometry relative="1" as="geometry" />
        </mxCell>
        <mxCell id="NA0-FD2zaBCLr44A0kzo-11" value="Documents" style="rounded=0;whiteSpace=wrap;html=1;" vertex="1" parent="1">
          <mxGeometry x="480" y="400" width="120" height="60" as="geometry" />
        </mxCell>
        <mxCell id="NA0-FD2zaBCLr44A0kzo-30" style="edgeStyle=orthogonalEdgeStyle;rounded=0;orthogonalLoop=1;jettySize=auto;html=1;entryX=0;entryY=0.5;entryDx=0;entryDy=0;" edge="1" parent="1" source="NA0-FD2zaBCLr44A0kzo-14" target="NA0-FD2zaBCLr44A0kzo-28">
          <mxGeometry relative="1" as="geometry" />
        </mxCell>
        <mxCell id="NA0-FD2zaBCLr44A0kzo-31" style="edgeStyle=orthogonalEdgeStyle;rounded=0;orthogonalLoop=1;jettySize=auto;html=1;entryX=0;entryY=0.5;entryDx=0;entryDy=0;" edge="1" parent="1" source="NA0-FD2zaBCLr44A0kzo-14" target="NA0-FD2zaBCLr44A0kzo-29">
          <mxGeometry relative="1" as="geometry" />
        </mxCell>
        <mxCell id="NA0-FD2zaBCLr44A0kzo-43" style="edgeStyle=orthogonalEdgeStyle;rounded=0;orthogonalLoop=1;jettySize=auto;html=1;entryX=0;entryY=0.5;entryDx=0;entryDy=0;" edge="1" parent="1" source="NA0-FD2zaBCLr44A0kzo-14" target="NA0-FD2zaBCLr44A0kzo-40">
          <mxGeometry relative="1" as="geometry" />
        </mxCell>
        <mxCell id="NA0-FD2zaBCLr44A0kzo-44" style="edgeStyle=orthogonalEdgeStyle;rounded=0;orthogonalLoop=1;jettySize=auto;html=1;entryX=0;entryY=0.5;entryDx=0;entryDy=0;" edge="1" parent="1" source="NA0-FD2zaBCLr44A0kzo-14" target="NA0-FD2zaBCLr44A0kzo-41">
          <mxGeometry relative="1" as="geometry" />
        </mxCell>
        <mxCell id="NA0-FD2zaBCLr44A0kzo-45" style="edgeStyle=orthogonalEdgeStyle;rounded=0;orthogonalLoop=1;jettySize=auto;html=1;entryX=0;entryY=0.5;entryDx=0;entryDy=0;" edge="1" parent="1" source="NA0-FD2zaBCLr44A0kzo-14" target="NA0-FD2zaBCLr44A0kzo-42">
          <mxGeometry relative="1" as="geometry" />
        </mxCell>
        <mxCell id="NA0-FD2zaBCLr44A0kzo-14" value="Assignment 1" style="rounded=0;whiteSpace=wrap;html=1;" vertex="1" parent="1">
          <mxGeometry x="640" y="160" width="120" height="60" as="geometry" />
        </mxCell>
        <mxCell id="NA0-FD2zaBCLr44A0kzo-16" value="Assignment 2" style="rounded=0;whiteSpace=wrap;html=1;" vertex="1" parent="1">
          <mxGeometry x="640" y="240" width="120" height="60" as="geometry" />
        </mxCell>
        <mxCell id="NA0-FD2zaBCLr44A0kzo-18" value="File 1" style="rounded=0;whiteSpace=wrap;html=1;" vertex="1" parent="1">
          <mxGeometry x="640" y="330" width="120" height="60" as="geometry" />
        </mxCell>
        <mxCell id="NA0-FD2zaBCLr44A0kzo-19" value="File 2" style="rounded=0;whiteSpace=wrap;html=1;" vertex="1" parent="1">
          <mxGeometry x="640" y="400" width="120" height="60" as="geometry" />
        </mxCell>
        <mxCell id="NA0-FD2zaBCLr44A0kzo-20" value="File 3" style="rounded=0;whiteSpace=wrap;html=1;" vertex="1" parent="1">
          <mxGeometry x="640" y="470" width="120" height="60" as="geometry" />
        </mxCell>
        <mxCell id="NA0-FD2zaBCLr44A0kzo-24" value="File 1" style="rounded=0;whiteSpace=wrap;html=1;" vertex="1" parent="1">
          <mxGeometry x="640" y="550" width="120" height="60" as="geometry" />
        </mxCell>
        <mxCell id="NA0-FD2zaBCLr44A0kzo-25" value="File 2" style="rounded=0;whiteSpace=wrap;html=1;" vertex="1" parent="1">
          <mxGeometry x="640" y="625" width="120" height="60" as="geometry" />
        </mxCell>
        <mxCell id="NA0-FD2zaBCLr44A0kzo-27" style="edgeStyle=orthogonalEdgeStyle;rounded=0;orthogonalLoop=1;jettySize=auto;html=1;entryX=0;entryY=0.5;entryDx=0;entryDy=0;" edge="1" parent="1" source="NA0-FD2zaBCLr44A0kzo-10" target="NA0-FD2zaBCLr44A0kzo-25">
          <mxGeometry relative="1" as="geometry" />
        </mxCell>
        <mxCell id="NA0-FD2zaBCLr44A0kzo-34" style="edgeStyle=orthogonalEdgeStyle;rounded=0;orthogonalLoop=1;jettySize=auto;html=1;entryX=0;entryY=0.5;entryDx=0;entryDy=0;" edge="1" parent="1" source="NA0-FD2zaBCLr44A0kzo-28" target="NA0-FD2zaBCLr44A0kzo-32">
          <mxGeometry relative="1" as="geometry" />
        </mxCell>
        <mxCell id="NA0-FD2zaBCLr44A0kzo-35" style="edgeStyle=orthogonalEdgeStyle;rounded=0;orthogonalLoop=1;jettySize=auto;html=1;entryX=0;entryY=0.5;entryDx=0;entryDy=0;" edge="1" parent="1" source="NA0-FD2zaBCLr44A0kzo-28" target="NA0-FD2zaBCLr44A0kzo-33">
          <mxGeometry relative="1" as="geometry" />
        </mxCell>
        <mxCell id="NA0-FD2zaBCLr44A0kzo-28" value="Teacher" style="rounded=0;whiteSpace=wrap;html=1;" vertex="1" parent="1">
          <mxGeometry x="800" y="110" width="120" height="60" as="geometry" />
        </mxCell>
        <mxCell id="NA0-FD2zaBCLr44A0kzo-38" style="edgeStyle=orthogonalEdgeStyle;rounded=0;orthogonalLoop=1;jettySize=auto;html=1;entryX=0;entryY=0.5;entryDx=0;entryDy=0;" edge="1" parent="1" source="NA0-FD2zaBCLr44A0kzo-29" target="NA0-FD2zaBCLr44A0kzo-36">
          <mxGeometry relative="1" as="geometry" />
        </mxCell>
        <mxCell id="NA0-FD2zaBCLr44A0kzo-39" style="edgeStyle=orthogonalEdgeStyle;rounded=0;orthogonalLoop=1;jettySize=auto;html=1;entryX=0;entryY=0.5;entryDx=0;entryDy=0;" edge="1" parent="1" source="NA0-FD2zaBCLr44A0kzo-29" target="NA0-FD2zaBCLr44A0kzo-37">
          <mxGeometry relative="1" as="geometry" />
        </mxCell>
        <mxCell id="NA0-FD2zaBCLr44A0kzo-29" value="Student 1" style="rounded=0;whiteSpace=wrap;html=1;" vertex="1" parent="1">
          <mxGeometry x="800" y="190" width="120" height="60" as="geometry" />
        </mxCell>
        <mxCell id="NA0-FD2zaBCLr44A0kzo-32" value="File 1" style="rounded=0;whiteSpace=wrap;html=1;" vertex="1" parent="1">
          <mxGeometry x="980" y="110" width="120" height="60" as="geometry" />
        </mxCell>
        <mxCell id="NA0-FD2zaBCLr44A0kzo-33" value="File 2" style="rounded=0;whiteSpace=wrap;html=1;" vertex="1" parent="1">
          <mxGeometry x="980" y="180" width="120" height="60" as="geometry" />
        </mxCell>
        <mxCell id="NA0-FD2zaBCLr44A0kzo-36" value="File 1" style="rounded=0;whiteSpace=wrap;html=1;" vertex="1" parent="1">
          <mxGeometry x="980" y="255" width="120" height="60" as="geometry" />
        </mxCell>
        <mxCell id="NA0-FD2zaBCLr44A0kzo-37" value="File 2" style="rounded=0;whiteSpace=wrap;html=1;" vertex="1" parent="1">
          <mxGeometry x="980" y="325" width="120" height="60" as="geometry" />
        </mxCell>
        <mxCell id="NA0-FD2zaBCLr44A0kzo-40" value="Student 2" style="rounded=0;whiteSpace=wrap;html=1;" vertex="1" parent="1">
          <mxGeometry x="800" y="265" width="120" height="60" as="geometry" />
        </mxCell>
        <mxCell id="NA0-FD2zaBCLr44A0kzo-41" value="Student 3" style="rounded=0;whiteSpace=wrap;html=1;" vertex="1" parent="1">
          <mxGeometry x="800" y="340" width="120" height="60" as="geometry" />
        </mxCell>
        <mxCell id="NA0-FD2zaBCLr44A0kzo-42" value="Student 4" style="rounded=0;whiteSpace=wrap;html=1;" vertex="1" parent="1">
          <mxGeometry x="800" y="420" width="120" height="60" as="geometry" />
        </mxCell>
      </root>
    </mxGraphModel>
  </diagram>
</mxfile>
